<svg width="100" height="72" viewBox="0 0 100 72" fill="none" xmlns="http://www.w3.org/2000/svg">
<path d="M26.728 1.08H36.04L57.736 66.36H62.248V71.16H45.16V66.36H47.243L41.79 48.38L19.04 48.504L14.243 66.36H17.608V71.16H0.52V66.36H4.936L26.728 1.08ZM31.336 7.128L21.54 41.66H41.22L31.336 7.128Z" fill="white"/>
<path d="M54.838 48.38H41.79C41.41 48.38 39.8597 47.3167 39.733 47.19C39.6063 47.0633 39.543 46.81 39.543 46.43L39.923 43.2C39.923 42.8833 39.9863 42.6617 40.113 42.535C40.303 42.4083 40.5563 42.345 40.873 42.345H54.838L55.788 28H43.671C43.4177 28 43.861 27.5063 43.671 27.443C43.5443 27.3797 43.4108 26.16 41.253 27.24L41.633 23.915C41.6963 23.5983 41.7913 23.3767 41.918 23.25C42.0447 23.1233 42.2663 23.06 42.583 23.06H56.073L57.498 2.35C57.5613 2.03334 57.6563 1.81167 57.783 1.685C57.9097 1.55834 58.1313 1.495 58.448 1.495H62.248C62.5647 1.495 62.7547 1.55834 62.818 1.685C62.9447 1.81167 62.9447 2.065 62.818 2.445L61.393 23.06L77.258 23.155L78.683 2.35C78.7463 2.03334 78.8413 1.81167 78.968 1.685C79.0947 1.55834 79.3163 1.495 79.633 1.495H83.433C83.7497 1.495 83.9397 1.55834 84.003 1.685C84.1297 1.81167 84.1297 2.065 84.003 2.445L82.578 23.155H98.253C98.7597 23.0917 99.0763 23.155 99.203 23.345C99.3297 23.4717 99.3613 23.6617 99.298 23.915L99.013 27.335C99.013 27.5883 98.918 27.7783 98.728 27.905C98.538 27.9683 98.348 28 98.158 28H82.293L81.343 42.345H96.448C96.9547 42.345 97.2713 42.4083 97.398 42.535C97.588 42.6617 97.683 42.8833 97.683 43.2L97.303 46.62C97.303 46.8733 97.208 47.0633 97.018 47.19C96.828 47.3167 96.638 47.38 96.448 47.38H81.058L79.728 67.9C79.728 68.09 79.6647 68.28 79.538 68.47C79.4747 68.5967 79.2847 68.66 78.968 68.66H75.168C74.9146 68.66 74.7247 68.5967 74.598 68.47C74.4713 68.28 74.408 67.9633 74.408 67.52L76.023 49.16H60.158L58.543 67.9C58.543 68.09 58.4797 68.28 58.353 68.47C58.2897 68.5967 58.0997 68.66 57.783 68.66H53.983C53.7297 68.66 53.5397 68.5967 53.413 68.47C53.2863 68.28 53.223 67.9633 53.223 67.52L54.838 48.38ZM60.158 42.345H76.023L76.973 28H61.108L60.158 42.345Z" fill="white"/>
</svg>
